<?xml version="1.0"?>
<svg width="148.765" height="148.765" xmlns="http://www.w3.org/2000/svg">
 <metadata id="metadata2408">image/svg+xml</metadata>
 <defs>
  <clipPath clipPathUnits="userSpaceOnUse" id="clipPath2418">
   <path d="m-223.599991,62.362003l289.134003,0l0,-62.362005l-289.134003,0l0,62.362005z" id="path2420"/>
  </clipPath>
 </defs>
 <g class="layer">
  <title>Layer 1</title>
  <g id="g2412" transform="matrix(1.25 0 0 -1.25 173.326 113.868)">
   <g id="g2414" transform="matrix(2 0 0 2 -144.661 -31.588)">
    <g clip-path="url(#clipPath2418)" id="g2416">
     <path d="m14.351007,61.341003l37.37599,-0.003998c6.574005,0.023998 10.994995,-5.457001 10.994995,-11.091003l0,-37.395002c0.011017,-5.737 -4.507996,-11.006999 -11.101986,-11.015999l-43.137011,0l29.952009,29.950001l0,-10.25l-12.516005,-12.449l25.720015,-0.000999c2.066986,0 3.829987,1.448999 3.829987,3.809l0,37.404006c-0.006012,2.299 -1.821991,3.792 -3.786987,3.794998l-37.37501,-0.002998c-2.136002,0.013 -3.821991,-1.601002 -3.821991,-3.781002l0.010986,-25.977003l12.544005,12.586004l10.251999,0l-30.076996,-30.090005l0,43.481c-0.018997,5.978001 4.720993,11.032001 11.136002,11.032001" fill="#004077" fill-rule="nonzero" id="path2512"/>
    </g>
   </g>
  </g>
 </g>
</svg>